- 
http://www.Speed.Cd 
       
http://www.Speed.Cd       the fast  and The Hottest Private Tracker on the net

(((--Registration will be open on june every weekend--)))

Please Seed back to make the speed Faster!!!

------------------nfo--------------------------
-[img]http://img802.imageshack.us/img802/3774/cedarrapidsbluray.jpg[/img]

[color=blue][size=5][b]Cedar.Rapids.2011.BDRip.XVID.AC3.HQ.Hive-CM8[/b][/size][/color]


[b]Thx Hive

CM8 Doing It Right The First Time :D

Source Bluray

Video: 720x384 @bitrate 2200 2pass
Audio: DTS to AC3 5.1 @448
Sample: yes included[/b]


[url]http://www.imdb.com/title/tt1477837/[/url]


General
Complete name                    : Cedar.Rapids.2011.BDRip.XVID.AC3.HQ.Hive-CM8.avi
Format                           : AVI
Format/Info                      : Audio Video Interleave
File size                        : 1.65 GiB
Duration                         : 1h 26mn
Overall bit rate                 : 2 723 Kbps
Writing application              : Nandub v1.0rc2
Writing library                  : Nandub build 1853/release

Video
ID                               : 0
Format                           : MPEG-4 Visual
Format profile                   : Advanced Simple@L5
Format settings, BVOP            : 1
Format settings, QPel            : Yes
Format settings, GMC             : No warppoints
Format settings, Matrix          : Default (H.263)
Muxing mode                      : Packed bitstream
Codec ID                         : XVID
Codec ID/Hint                    : XviD
Duration                         : 1h 26mn
Bit rate                         : 2 265 Kbps
Width                            : 720 pixels
Height                           : 384 pixels
Display aspect ratio             : 1.850
Frame rate                       : 23.976 fps
Color space                      : YUV
Chroma subsampling               : 4:2:0
Bit depth                        : 8 bits
Scan type                        : Progressive
Compression mode                 : Lossy
Bits/(Pixel*Frame)               : 0.342
Stream size                      : 1.38 GiB (83%)
Writing library                  : XviD 1.2.1 (UTC 2008-12-04)

Audio
ID                               : 1
Format                           : AC-3
Format/Info                      : Audio Coding 3
Mode extension                   : CM (complete main)
Codec ID                         : 2000
Duration                         : 1h 26mn
Bit rate mode                    : Constant
Bit rate                         : 448 Kbps
Channel(s)                       : 6 channels
Channel positions                : Front: L C R, Side: L R, LFE
Sampling rate                    : 48.0 KHz
Bit depth                        : 16 bits
Compression mode                 : Lossy
Stream size                      : 279 MiB (16%)
Alignment                        : Split accross interleaves
Interleave, duration             : 42 ms (1.00 video frame)
Interleave, preload duration     : 500 ms



Ed Helms	 ... 	Tim Lippe
John C. Reilly	... 	Dean Ziegler
Anne Heche	... 	Joan Ostrowski-Fox
Isiah Whitlock Jr.	... 	Ronald Wilkes
Stephen Root	... 	Bill Krogstad


Tim Lippe has no idea what he's in for when he's sent to Cedar Rapids, 
Iowa to represent his company at an annual insurance convention, where he 
soon finds himself under the "guidance" of three convention veterans. 

 

[img]http://img192.imageshack.us/img192/9384/30130481.png[/img]
[img]http://img5.imageshack.us/img5/1491/ceccceceee.png[/img]
[img]http://img59.imageshack.us/img59/2292/cece.png[/img]
[img]http://img84.imageshack.us/img84/5197/cecccecececeecee.png[/img]
[img]http://img28.imageshack.us/img28/3266/cecccecececeee.png[/img]
[img]http://img828.imageshack.us/img828/9693/cecccececeee.png[/img]
[img]http://img405.imageshack.us/img405/969/ceccceee.png[/img]
[img]http://img833.imageshack.us/img833/3661/ceccee.png[/img]



Greetz

ViSiON,SANTi,MAGNET,THC,T0XiC,iNK,LKRG,IMAGiNE,WBZ,FLAWL3SS,NOVA
Vik,OneTwo,Rapeseed,D2U,SAFC,goldadvance,MEMORY100,KaN1vE,Unevano,Pinnz,Wayne,Mr Hive
and all P2P groups 
Great Work Guys :D

FYS

CM8@hushmail.com